<?xml version="1.0" standalone="no"?><svg xmlns="http://www.w3.org/2000/svg" viewBox="0 0 1440 320"><path fill="#C69B7B" fill-opacity="1" d="M0,96L11.4,96C22.9,96,46,96,69,128C91.4,160,114,224,137,208C160,192,183,96,206,64C228.6,32,251,64,274,69.3C297.1,75,320,53,343,69.3C365.7,85,389,139,411,181.3C434.3,224,457,256,480,245.3C502.9,235,526,181,549,144C571.4,107,594,85,617,106.7C640,128,663,192,686,197.3C708.6,203,731,149,754,112C777.1,75,800,53,823,53.3C845.7,53,869,75,891,122.7C914.3,171,937,245,960,250.7C982.9,256,1006,192,1029,192C1051.4,192,1074,256,1097,288C1120,320,1143,320,1166,314.7C1188.6,309,1211,299,1234,293.3C1257.1,288,1280,288,1303,288C1325.7,288,1349,288,1371,245.3C1394.3,203,1417,117,1429,74.7L1440,32L1440,0L1428.6,0C1417.1,0,1394,0,1371,0C1348.6,0,1326,0,1303,0C1280,0,1257,0,1234,0C1211.4,0,1189,0,1166,0C1142.9,0,1120,0,1097,0C1074.3,0,1051,0,1029,0C1005.7,0,983,0,960,0C937.1,0,914,0,891,0C868.6,0,846,0,823,0C800,0,777,0,754,0C731.4,0,709,0,686,0C662.9,0,640,0,617,0C594.3,0,571,0,549,0C525.7,0,503,0,480,0C457.1,0,434,0,411,0C388.6,0,366,0,343,0C320,0,297,0,274,0C251.4,0,229,0,206,0C182.9,0,160,0,137,0C114.3,0,91,0,69,0C45.7,0,23,0,11,0L0,0Z"></path></svg>