<?xml version="1.0" standalone="no"?><svg xmlns="http://www.w3.org/2000/svg" viewBox="0 0 1440 320"><path fill="#F7CCAC" fill-opacity="1" d="M0,192L11.4,170.7C22.9,149,46,107,69,128C91.4,149,114,235,137,272C160,309,183,299,206,266.7C228.6,235,251,181,274,138.7C297.1,96,320,64,343,48C365.7,32,389,32,411,58.7C434.3,85,457,139,480,149.3C502.9,160,526,128,549,112C571.4,96,594,96,617,112C640,128,663,160,686,149.3C708.6,139,731,85,754,74.7C777.1,64,800,96,823,128C845.7,160,869,192,891,170.7C914.3,149,937,75,960,58.7C982.9,43,1006,85,1029,106.7C1051.4,128,1074,128,1097,112C1120,96,1143,64,1166,64C1188.6,64,1211,96,1234,96C1257.1,96,1280,64,1303,64C1325.7,64,1349,96,1371,117.3C1394.3,139,1417,149,1429,154.7L1440,160L1440,0L1428.6,0C1417.1,0,1394,0,1371,0C1348.6,0,1326,0,1303,0C1280,0,1257,0,1234,0C1211.4,0,1189,0,1166,0C1142.9,0,1120,0,1097,0C1074.3,0,1051,0,1029,0C1005.7,0,983,0,960,0C937.1,0,914,0,891,0C868.6,0,846,0,823,0C800,0,777,0,754,0C731.4,0,709,0,686,0C662.9,0,640,0,617,0C594.3,0,571,0,549,0C525.7,0,503,0,480,0C457.1,0,434,0,411,0C388.6,0,366,0,343,0C320,0,297,0,274,0C251.4,0,229,0,206,0C182.9,0,160,0,137,0C114.3,0,91,0,69,0C45.7,0,23,0,11,0L0,0Z"></path></svg>