<?xml version="1.0" standalone="no"?><svg xmlns="http://www.w3.org/2000/svg" viewBox="0 0 1440 320"><path fill="#3A3845" fill-opacity="1" d="M0,128L15,133.3C30,139,60,149,90,138.7C120,128,150,96,180,106.7C210,117,240,171,270,192C300,213,330,203,360,186.7C390,171,420,149,450,154.7C480,160,510,192,540,170.7C570,149,600,75,630,74.7C660,75,690,149,720,170.7C750,192,780,160,810,165.3C840,171,870,213,900,208C930,203,960,149,990,154.7C1020,160,1050,224,1080,218.7C1110,213,1140,139,1170,128C1200,117,1230,171,1260,165.3C1290,160,1320,96,1350,96C1380,96,1410,160,1425,192L1440,224L1440,0L1425,0C1410,0,1380,0,1350,0C1320,0,1290,0,1260,0C1230,0,1200,0,1170,0C1140,0,1110,0,1080,0C1050,0,1020,0,990,0C960,0,930,0,900,0C870,0,840,0,810,0C780,0,750,0,720,0C690,0,660,0,630,0C600,0,570,0,540,0C510,0,480,0,450,0C420,0,390,0,360,0C330,0,300,0,270,0C240,0,210,0,180,0C150,0,120,0,90,0C60,0,30,0,15,0L0,0Z"></path></svg>